<?xml version="1.0" encoding="utf-8"?>
<!-- Generator: Adobe Illustrator 16.0.0, SVG Export Plug-In . SVG Version: 6.00 Build 0)  -->
<!DOCTYPE svg PUBLIC "-//W3C//DTD SVG 1.1//EN" "http://www.w3.org/Graphics/SVG/1.1/DTD/svg11.dtd">
<svg version="1.1" id="Layer_1" xmlns="http://www.w3.org/2000/svg" xmlns:xlink="http://www.w3.org/1999/xlink" x="0px" y="0px"
	 width="152px" height="152px" viewBox="0 0 152 152" enable-background="new 0 0 152 152" xml:space="preserve">
<g>
	<path fill="#ACACAC" d="M18.377,78.336c0.031,31.773,25.864,57.607,57.607,57.607c31.773,0,57.607-25.834,57.607-57.607
		c0-31.774-25.834-57.607-57.607-57.607S18.377,46.562,18.377,78.336z M75.984,25.37c29.206,0,52.967,23.76,52.967,52.966
		c0,29.205-23.761,52.967-52.967,52.967c-29.206,0-52.966-23.762-52.966-52.967C23.018,49.13,46.779,25.37,75.984,25.37z"/>
	<path fill="#ACACAC" d="M149.432,78.336c0-22.678-10.457-43.468-27.318-57.112c-7.022-5.692-15.16-10.117-24.101-12.932
		c0.155-0.495,0.216-0.99,0.216-1.516l0,0c0,0,0,0,0-0.031c0-1.485-0.557-2.815-1.422-3.867l-0.063-0.031
		c-0.371-0.371-2.383-2.196-4.362-2.196l-0.03,0.031c-0.094,0-0.187-0.031-0.279-0.031h-4.548h-5.167H69.673h-5.167h-4.548
		c-0.093,0-0.186,0.031-0.278,0.031L59.649,0.65c-1.98,0-3.991,1.825-4.362,2.196l-0.062,0.031
		c-0.867,1.052-1.423,2.382-1.423,3.867c0,0,0,0,0,0.031l0,0c0,0.526,0.062,1.021,0.217,1.516
		c-8.941,2.815-17.078,7.24-24.101,12.932C13.056,34.836,2.599,55.658,2.599,78.336l0,0l0,0c0,40.498,32.918,73.416,73.417,73.416
		C116.514,151.752,149.432,118.834,149.432,78.336L149.432,78.336L149.432,78.336z M92.072,5.229c0.836,0,1.485,0.681,1.485,1.485
		c0,0.619-0.341,0.99-0.558,1.145c-0.68,0.557-0.989,1.423-0.804,2.29c0.186,0.866,0.835,1.547,1.671,1.763
		c30.01,8.075,50.924,35.394,50.893,66.394c0,37.931-30.814,68.745-68.744,68.776C38.085,147.05,7.271,116.235,7.271,78.305
		c-0.031-31,20.883-58.318,50.894-66.394c0.835-0.216,1.485-0.897,1.671-1.763c0.186-0.867-0.124-1.733-0.805-2.29
		c-0.216-0.155-0.557-0.526-0.557-1.145c0-0.805,0.649-1.485,1.485-1.485H92.072z"/>
</g>
</svg>
