<?xml version="1.0" encoding="utf-8"?>
<!-- Generator: Adobe Illustrator 16.0.0, SVG Export Plug-In . SVG Version: 6.00 Build 0)  -->
<!DOCTYPE svg PUBLIC "-//W3C//DTD SVG 1.1//EN" "http://www.w3.org/Graphics/SVG/1.1/DTD/svg11.dtd">
<svg version="1.1" id="Layer_1" xmlns="http://www.w3.org/2000/svg" xmlns:xlink="http://www.w3.org/1999/xlink" x="0px" y="0px"
	 width="100px" height="100px" viewBox="0 0 100 100" enable-background="new 0 0 100 100" xml:space="preserve">
<g>
	<path d="M97.646,49.591c-7.3-18.158-26.279-30.347-47.238-30.347h-0.095C29.4,19.286,10.459,31.476,3.172,49.591
		c-0.23,0.582-0.23,1.243,0,1.825c7.3,18.156,26.279,30.34,47.235,30.34h0.097c20.914-0.038,39.854-12.229,47.141-30.34
		C97.877,50.834,97.877,50.172,97.646,49.591z M50.498,77.393h-0.09c-19.136,0-36.429-10.757-43.385-26.893
		c6.937-16.094,24.204-26.86,43.296-26.896h0.088c19.14,0,36.429,10.767,43.385,26.896C86.859,66.601,69.59,77.367,50.498,77.393z"
		/>
	<path d="M48.699,29.114c-12.703,0-23.034,9.737-23.034,21.706c0,11.966,10.332,21.706,23.034,21.706
		c12.691,0,23.028-9.739,23.028-21.706C71.727,38.851,61.39,29.114,48.699,29.114z M48.699,68.394
		c-10.282,0-18.65-7.885-18.65-17.574s8.368-17.574,18.65-17.574c10.285,0,18.642,7.885,18.642,17.574S58.983,68.394,48.699,68.394z
		"/>
	<g display="none">
		<defs>
			<path id="SVGID_1_" d="M95.907,54.391L95.907,54.391L95.907,54.391c-6.979-15.207-25.222-25.488-45.594-25.456
				C29.991,28.967,11.86,39.254,4.909,54.391l0,0l0,0l0,0l0,0c6.982,15.207,25.222,25.489,45.594,25.457
				C70.826,79.818,88.957,69.527,95.907,54.391L95.907,54.391L95.907,54.391z"/>
		</defs>
		<clipPath id="SVGID_2_" display="inline">
			<use xlink:href="#SVGID_1_"  overflow="visible"/>
		</clipPath>
		<path display="inline" clip-path="url(#SVGID_2_)" d="M16.582,76.454c-0.354,0-0.711-0.096-1.031-0.302
			c-0.887-0.571-1.144-1.754-0.574-2.641l5.321-8.277l-1.139-6.259c-0.111-0.616,0.087-1.246,0.529-1.689l3.184-3.185
			c0.744-0.745,1.954-0.745,2.699,0c0.746,0.749,0.746,1.957,0,2.702l-2.474,2.475l1.093,6.015c0.088,0.476-0.011,0.97-0.271,1.375
			l-5.729,8.909C17.823,76.146,17.21,76.454,16.582,76.454z"/>
		<path display="inline" clip-path="url(#SVGID_2_)" d="M22.307,67.545c-0.959,0-1.785-0.723-1.894-1.699
			c-0.117-1.048,0.639-1.992,1.687-2.108l5.727-0.636c1.046-0.116,1.994,0.636,2.109,1.687c0.116,1.048-0.64,1.992-1.687,2.111
			l-5.729,0.633C22.45,67.542,22.378,67.545,22.307,67.545z"/>
		<path display="inline" clip-path="url(#SVGID_2_)" d="M96.135,71.365c-0.337,0-0.681-0.09-0.989-0.283l-14.639-8.906
			c-0.568-0.347-0.915-0.964-0.915-1.632v-5.122l-4.595-2.043c-0.36-0.161-0.662-0.424-0.861-0.765l-1.912-3.181
			c-0.543-0.903-0.247-2.077,0.656-2.619c0.902-0.543,2.078-0.25,2.618,0.654l1.601,2.665l5.176,2.301
			c0.69,0.308,1.134,0.989,1.134,1.747v5.289l13.723,8.354c0.9,0.547,1.186,1.723,0.637,2.622
			C97.407,71.037,96.781,71.365,96.135,71.365z"/>
		<path display="inline" clip-path="url(#SVGID_2_)" d="M81.5,56.091c-0.324,0-0.649-0.084-0.948-0.254
			c-0.915-0.523-1.233-1.687-0.71-2.605l2.545-4.454c0.523-0.916,1.69-1.235,2.605-0.71c0.916,0.522,1.234,1.688,0.71,2.604
			l-2.544,4.455C82.805,55.743,82.158,56.091,81.5,56.091z"/>
		<path display="inline" clip-path="url(#SVGID_2_)" d="M81.5,62.452c-0.122,0-0.251-0.013-0.376-0.038l-6.365-1.272
			c-1.034-0.206-1.702-1.212-1.497-2.243c0.209-1.034,1.215-1.702,2.249-1.5l6.365,1.272c1.031,0.209,1.703,1.211,1.494,2.245
			C83.19,61.826,82.394,62.452,81.5,62.452z"/>
		<path display="inline" clip-path="url(#SVGID_2_)" d="M24.858,50.362c-0.649,0-1.281-0.331-1.639-0.929l-1.91-3.181
			c-0.178-0.297-0.271-0.638-0.271-0.983v-4.455l-5.347-7.128c-0.633-0.844-0.462-2.041,0.382-2.673
			c0.845-0.633,2.041-0.461,2.672,0.382l5.729,7.637c0.248,0.331,0.382,0.733,0.382,1.146v4.563l1.637,2.728
			c0.543,0.904,0.249,2.077-0.655,2.62C25.531,50.273,25.192,50.362,24.858,50.362z"/>
		<path display="inline" clip-path="url(#SVGID_2_)" d="M28.677,43.361c-0.138,0-0.276-0.016-0.416-0.045l-5.727-1.274
			c-1.03-0.23-1.681-1.249-1.451-2.278c0.229-1.03,1.25-1.675,2.278-1.451l5.729,1.274c1.028,0.229,1.677,1.249,1.449,2.278
			C30.341,42.755,29.552,43.361,28.677,43.361z"/>
		<path display="inline" clip-path="url(#SVGID_2_)" d="M15.309,57.999c-0.832,0-1.597-0.546-1.836-1.385l-1.075-3.763l-8.304-5.34
			c-0.887-0.57-1.144-1.751-0.573-2.638c0.57-0.888,1.751-1.144,2.638-0.573l8.911,5.727c0.389,0.25,0.675,0.636,0.803,1.081
			l1.272,4.455c0.289,1.016-0.297,2.069-1.311,2.361C15.66,57.974,15.483,57.999,15.309,57.999z"/>
		<path display="inline" clip-path="url(#SVGID_2_)" d="M14.035,53.543c-0.949,0-1.772-0.704-1.892-1.673
			c-0.132-1.045,0.61-2,1.656-2.132l5.092-0.636c1.044-0.129,2,0.612,2.132,1.658c0.13,1.045-0.612,2.001-1.658,2.13l-5.093,0.636
			C14.194,53.539,14.112,53.543,14.035,53.543z"/>
		<path display="inline" clip-path="url(#SVGID_2_)" d="M78.319,78.999c-0.655,0-1.298-0.337-1.651-0.944L72.5,70.909l-3.313-1.658
			c-0.941-0.469-1.323-1.616-0.852-2.561c0.473-0.941,1.62-1.327,2.562-0.852l3.816,1.908c0.334,0.164,0.61,0.425,0.797,0.746
			l4.453,7.634c0.534,0.912,0.226,2.082-0.684,2.615C78.978,78.916,78.646,78.999,78.319,78.999z"/>
		<path display="inline" clip-path="url(#SVGID_2_)" d="M72.587,45.271c-0.199,0-0.398-0.032-0.604-0.1
			c-0.996-0.333-1.536-1.416-1.208-2.415l1.275-3.82c0.103-0.307,0.282-0.583,0.521-0.803l7.637-7
			c0.778-0.713,1.986-0.662,2.699,0.116c0.713,0.777,0.662,1.985-0.119,2.699l-7.271,6.667l-1.118,3.348
			C74.136,44.763,73.391,45.271,72.587,45.271z"/>
		<path display="inline" clip-path="url(#SVGID_2_)" d="M73.862,41.452c-0.183,0-0.362-0.027-0.549-0.082l-6.362-1.91
			c-1.012-0.302-1.587-1.367-1.281-2.377c0.302-1.009,1.365-1.584,2.377-1.279l6.365,1.909c1.009,0.304,1.581,1.367,1.279,2.377
			C75.443,40.917,74.686,41.452,73.862,41.452z"/>
	</g>
	<path d="M49.063,40.31c-5.443,0-9.872,4.172-9.872,9.303c0,5.128,4.429,9.302,9.872,9.302c5.441,0,9.868-4.174,9.868-9.302
		C58.932,44.482,54.505,40.31,49.063,40.31z M49.062,54.044c-2.591,0-4.702-1.989-4.702-4.431c0-2.443,2.111-4.433,4.702-4.433
		c2.595,0,4.701,1.989,4.701,4.433C53.763,52.055,51.656,54.044,49.062,54.044z"/>
</g>
</svg>
