<svg id="Layer_1" data-name="Layer 1" xmlns="http://www.w3.org/2000/svg" viewBox="0 0 68.764 60.846">
  <defs>
    <style>
      .cls-1, .cls-3 {
        fill: #fff;
      }

      .cls-1, .cls-2, .cls-3 {
        stroke: #000;
        stroke-miterlimit: 10;
      }

      .cls-1 {
        fill-rule: evenodd;
      }

      .cls-2 {
        fill: none;
      }
    </style>
  </defs>
  <title>Icon</title>
  <g>
    <path class="cls-1" d="M61.345,29.948A27.363,27.363,0,1,1,33.982,2.585,27.363,27.363,0,0,1,61.345,29.948"/>
    <path class="cls-2" d="M61.345,29.948A27.363,27.363,0,1,1,33.982,2.585,27.363,27.363,0,0,1,61.345,29.948Z"/>
    <line class="cls-2" x1="14.633" y1="10.599" x2="53.33" y2="49.296"/>
    <line class="cls-2" x1="14.633" y1="49.296" x2="53.33" y2="10.599"/>
    <line class="cls-2" x1="6.619" y1="29.948" x2="61.345" y2="29.948"/>
    <line class="cls-2" x1="33.982" y1="57.311" x2="33.982" y2="2.585"/>
    <rect class="cls-3" x="19.208" y="15.173" width="29.643" height="29.644"/>
    <rect class="cls-2" x="19.208" y="15.173" width="29.643" height="29.644"/>
    <rect class="cls-2" x="19.519" y="15.485" width="29.022" height="29.022" transform="translate(-11.243 32.848) rotate(-45)"/>
  </g>
</svg>
