<svg id="Layer_1" data-name="Layer 1" xmlns="http://www.w3.org/2000/svg" viewBox="0 0 58.762 61.263">
  <defs>
    <style>
      .cls-1 {
        fill: #fff;
      }
    </style>
  </defs>
  <title>Icon</title>
  <g>
    <polygon class="cls-1" points="19.453 11.492 14.536 4.118 8.09 10.565 15.464 15.482 19.453 11.492"/>
    <polygon class="cls-1" points="43.003 15.482 50.378 10.565 43.93 4.118 39.014 11.493 43.003 15.482"/>
    <polygon class="cls-1" points="38.103 11.056 42.918 3.833 15.548 3.833 20.365 11.056 38.103 11.056"/>
    <polygon class="cls-1" points="15.633 46.176 8.258 51.092 14.649 57.483 19.566 50.109 15.633 46.176"/>
    <polygon class="cls-1" points="38.901 50.108 43.818 57.483 50.209 51.092 42.834 46.175 38.901 50.108"/>
    <polygon class="cls-1" points="38.041 50.432 20.426 50.432 20.514 50.491 15.736 57.656 42.731 57.656 37.954 50.491 38.041 50.432"/>
    <polygon class="cls-1" points="15.028 16.393 7.805 11.577 7.805 50.193 15.028 45.377 15.028 16.393"/>
    <polygon class="cls-1" points="43.438 45.376 50.663 50.193 50.663 11.577 43.438 16.394 43.438 45.376"/>
    <polygon class="cls-1" points="20.304 12.056 16.028 16.332 16.028 45.157 20.304 49.432 38.163 49.432 42.438 45.157 42.438 16.332 38.163 12.056 20.304 12.056"/>
    <path d="M44.059,2.833H14.407l-7.6,7.6V51.053l7.6,7.6h.536l.087.058.039-.058H43.4l.038.058.088-.058h.535l7.6-7.6V10.436Zm6.319,7.732L43,15.482l-3.989-3.989L43.93,4.118Zm-7.94,5.767V45.157l-4.275,4.275H20.3l-4.276-4.275V16.332L20.3,12.056H38.163Zm.48-12.5L38.1,11.056H20.365L15.548,3.833Zm-28.382.285,4.917,7.374-3.989,3.99L8.09,10.565ZM7.805,11.577l7.223,4.816V45.377L7.805,50.193Zm6.844,45.906L8.258,51.092l7.375-4.916,3.933,3.933Zm1.087.173,4.778-7.165-.088-.059H38.041l-.087.059,4.777,7.165Zm28.082-.173L38.9,50.108l3.933-3.933,7.375,4.917Zm6.845-7.29-7.225-4.817V16.394l7.225-4.817Z"/>
  </g>
</svg>
