<svg id="Layer_1" data-name="Layer 1" xmlns="http://www.w3.org/2000/svg" viewBox="0 0 50.427 58.345">
  <defs>
    <style>
      .cls-1 {
        fill: #fff;
      }
    </style>
  </defs>
  <title>Icon</title>
  <g>
    <path class="cls-1" d="M16.405,14.021a13.738,13.738,0,0,1,8.966-3.83V2.705A21.416,21.416,0,0,0,11.035,8.651Z"/>
    <path class="cls-1" d="M11.7,23.694a15.546,15.546,0,0,1,4-8.967L10.328,9.358A21.413,21.413,0,0,0,4.381,23.694Z"/>
    <path class="cls-1" d="M14.594,34.764a19.543,19.543,0,0,1-2.983-9.423c0-.218.022-.431.031-.647H4.376c.154,4.846,2.525,9.948,5.66,14.628Z"/>
    <path class="cls-1" d="M26.371,2.705v7.486a13.734,13.734,0,0,1,8.966,3.831l5.37-5.371A21.41,21.41,0,0,0,26.371,2.705Z"/>
    <path class="cls-1" d="M41.133,40.164,36.62,35.651A58.466,58.466,0,0,1,26.371,47.584v8.562A92.389,92.389,0,0,0,41.133,40.164Z"/>
    <path class="cls-1" d="M25.371,47.584A58.433,58.433,0,0,1,15.122,35.651l-4.514,4.513A92.284,92.284,0,0,0,25.371,56.145Z"/>
    <path class="cls-1" d="M36.046,14.727a15.552,15.552,0,0,1,4,8.967h7.318A21.413,21.413,0,0,0,41.414,9.358Z"/>
    <path class="cls-1" d="M47.366,24.694H40.1c.008.216.031.429.031.647a19.534,19.534,0,0,1-2.984,9.423l4.558,4.558C44.84,34.641,47.211,29.539,47.366,24.694Z"/>
    <path d="M25.872,1.679A22.541,22.541,0,0,0,3.355,24.194c0,6.465,3.745,14.059,11.131,22.573a98.405,98.405,0,0,0,11.072,10.84l.314.252.313-.252a98.308,98.308,0,0,0,11.072-10.84c7.385-8.514,11.129-16.108,11.129-22.573A22.539,22.539,0,0,0,25.872,1.679Zm0,9.485c7.311,0,13.26,6.36,13.26,14.177,0,8.979-11.191,19.482-13.26,21.347-2.07-1.864-13.26-12.364-13.26-21.347C12.611,17.524,18.559,11.164,25.871,11.164Zm9.466,2.858a13.734,13.734,0,0,0-8.966-3.831V2.705A21.41,21.41,0,0,1,40.707,8.651Zm-9.966-3.831a13.738,13.738,0,0,0-8.966,3.83l-5.37-5.37A21.416,21.416,0,0,1,25.371,2.705ZM15.7,14.727a15.546,15.546,0,0,0-4,8.967H4.381A21.413,21.413,0,0,1,10.328,9.358Zm-4.054,9.967c-.009.216-.031.429-.031.647a19.543,19.543,0,0,0,2.983,9.423l-4.558,4.558C6.9,34.642,4.53,29.54,4.376,24.694Zm28.489.647c0-.218-.023-.431-.031-.647h7.266c-.155,4.845-2.526,9.947-5.661,14.628l-4.558-4.558A19.534,19.534,0,0,0,40.131,25.341Zm-.088-1.647a15.552,15.552,0,0,0-4-8.967l5.368-5.369a21.413,21.413,0,0,1,5.947,14.336ZM10.608,40.164l4.514-4.513A58.433,58.433,0,0,0,25.371,47.584v8.561A92.284,92.284,0,0,1,10.608,40.164Zm15.763,7.42A58.466,58.466,0,0,0,36.62,35.651l4.513,4.513A92.389,92.389,0,0,1,26.371,56.146Z"/>
    <path class="cls-1" d="M25.871,46.688c2.069-1.865,13.26-12.368,13.26-21.347,0-7.817-5.949-14.177-13.26-14.177s-13.26,6.36-13.26,14.177C12.611,34.324,23.8,44.824,25.871,46.688Z"/>
  </g>
</svg>
