<svg id="Layer_1" data-name="Layer 1" xmlns="http://www.w3.org/2000/svg" viewBox="0 0 50.01 62.93">
  <defs>
    <style>
      .cls-1 {
        fill: #fff;
      }
    </style>
  </defs>
  <title>Icon</title>
  <g>
    <polygon class="cls-1" points="11.097 50.668 13.327 52.843 14.202 49.024 14.201 49.024 11.132 49.785 10.383 49.971 10.384 49.972 11.097 50.668"/>
    <polygon class="cls-1" points="39.839 44.937 39.839 31.421 39.839 17.089 39.839 17.085 38.903 21.339 36.776 31.01 38.922 40.771 39.839 44.943 39.839 44.937"/>
    <polygon class="cls-1" points="35.679 9.195 35.677 9.193 34.803 13.013 34.806 13.012 36.801 12.514 38.621 12.059 38.621 12.059 35.679 9.195"/>
    <polygon class="cls-1" points="35.678 52.839 35.681 52.837 38.623 49.973 38.625 49.971 34.807 49.02 35.678 52.839"/>
    <polygon class="cls-1" points="39.659 48.703 36.36 34.614 36.359 34.607 35.12 47.533 39.661 48.708 39.659 48.703"/>
    <polygon class="cls-1" points="16.178 8.104 16.171 8.104 24.504 11.663 32.835 8.104 32.826 8.104 16.178 8.104"/>
    <polygon class="cls-1" points="14.507 8.476 15.582 13.14 15.585 13.139 22.603 12.265 14.509 8.477 14.507 8.476"/>
    <polygon class="cls-1" points="13.135 39.713 12.646 34.609 9.341 48.703 9.339 48.711 13.885 47.535 13.135 39.713"/>
    <polygon class="cls-1" points="34.49 53.553 33.416 48.895 33.416 48.894 26.396 49.769 34.491 53.556 34.49 53.553"/>
    <polygon class="cls-1" points="33.415 13.137 34.489 8.478 34.49 8.475 26.395 12.263 33.415 13.137 33.415 13.137"/>
    <polygon class="cls-1" points="14.199 13.012 13.325 9.2 10.387 12.061 10.381 12.066 14.201 13.02 14.199 13.012"/>
    <polygon class="cls-1" points="22.606 49.766 15.585 48.892 14.51 53.555 22.604 49.767 22.606 49.766"/>
    <polygon class="cls-1" points="13.943 54.89 13.942 54.892 13.229 55.865 11.691 57.962 11.692 57.962 37.316 57.962 37.317 57.962 35.064 54.89 13.943 54.89"/>
    <polygon class="cls-1" points="36.133 54.517 36.135 54.52 38.311 57.686 43.663 52.582 43.666 52.579 40.521 50.367 36.133 54.517"/>
    <polygon class="cls-1" points="33.693 14.46 33.673 14.258 33.672 14.25 24.956 13.142 24.923 13.142 24.493 13.198 24.073 13.144 15.323 14.256 13.739 31.005 15.323 47.768 15.329 47.768 24.073 48.88 24.493 48.826 24.923 48.881 24.956 48.881 33.672 47.773 33.693 47.563 35.262 31.014 33.693 14.46"/>
    <polygon class="cls-1" points="12.232 31.014 11.233 26.475 9.167 17.085 9.167 17.089 9.167 30.61 9.169 30.61 9.169 44.943 12.232 31.014"/>
    <polygon class="cls-1" points="9.345 13.329 12.645 27.423 13.882 14.501 13.883 14.497 9.343 13.322 9.345 13.329"/>
    <polygon class="cls-1" points="40.521 11.659 40.521 11.659 43.666 9.447 38.308 4.34 36.13 7.51 40.521 11.659"/>
    <polygon class="cls-1" points="32.833 53.932 24.501 50.374 16.179 53.93 16.173 53.933 32.836 53.933 32.833 53.932"/>
    <polygon class="cls-1" points="12.874 54.52 12.875 54.518 8.485 50.367 5.342 52.583 10.698 57.685 10.785 57.568 11.113 57.125 11.81 56.094 12.874 54.52"/>
    <polygon class="cls-1" points="40.803 12.971 40.803 30.61 40.803 49.059 43.944 51.428 43.945 51.429 43.945 31.421 43.945 10.601 43.942 10.603 40.803 12.971"/>
    <polygon class="cls-1" points="8.207 49.059 8.207 31.421 8.207 12.972 5.064 10.603 5.064 30.61 5.065 30.61 5.065 51.424 8.207 49.059"/>
    <polygon class="cls-1" points="36.363 27.416 36.364 27.427 38.321 19.071 39.666 13.327 39.666 13.326 38.652 13.588 35.126 14.501 36.363 27.416"/>
    <polygon class="cls-1" points="35.064 7.138 37.319 4.068 37.316 4.068 11.689 4.068 13.941 7.138 35.064 7.138"/>
    <polygon class="cls-1" points="12.875 7.51 11.112 4.909 10.698 4.346 10.697 4.347 5.34 9.448 8.485 11.661 12.875 7.51"/>
    <path d="M44.756,9.154l-6.075-5.8a.472.472,0,0,0-.274-.2L10.739,3.105c.019,0-.02.02-.067.026l-.075.024a.455.455,0,0,0-.265.2l-.047.06L4.245,9.16a.486.486,0,0,0-.149.353l.018.126L4.1,9.685V52.348l.017.046L4.1,52.52a.483.483,0,0,0,.149.356l6.029,5.742.048.06a.453.453,0,0,0,.264.2l.075.023c.048,0,.085.023.068.027L38.4,58.88a.467.467,0,0,0,.274-.2l6.075-5.8a.486.486,0,0,0,.15-.354V30.61h.01V9.508A.485.485,0,0,0,44.756,9.154Zm-1.09.293-3.145,2.212h0L36.13,7.51l2.178-3.17ZM16.179,53.93,24.5,50.374l8.332,3.558H16.173Zm-1.669-.375,1.075-4.663,7.021.874h0ZM26.4,49.769l7.02-.875h0l1.074,4.658v0Zm7.3-2.206-.021.21-8.716,1.108h-.033l-.43-.055-.42.054-8.744-1.112h-.006L13.739,31.005l1.584-16.749,8.75-1.112.42.054.43-.056h.033l8.716,1.108v.008l.02.2,1.569,16.554ZM9.167,30.61V17.085l2.066,9.39,1,4.539L9.169,44.943V30.61ZM13.883,14.5v0L12.645,27.423l-3.3-14.094,0-.007Zm-3.5-2.431.006-.005L13.325,9.2l.874,3.812,0,.008ZM9.341,48.7l3.305-14.094.489,5.1.75,7.822L9.339,48.711Zm1.791,1.082,3.069-.761h0l-.875,3.819L11.1,50.668l-.713-.7h0ZM24.5,11.663,16.171,8.1H32.835ZM34.49,8.475v0l-1.074,4.659h0l-7.02-.874ZM22.6,12.265l-7.018.874h0L14.507,8.476h0Zm14.2.249-2,.5h0l.874-3.82,0,0,2.942,2.864h0Zm1.851,1.074,1.014-.262h0l-1.345,5.744-1.957,8.356v-.011L35.126,14.5ZM35.12,47.533l1.239-12.926v.007l3.3,14.089,0,0Zm3.505,2.438,0,0-2.942,2.864,0,0-.871-3.819Zm.3-9.2L36.776,31.01,38.9,21.339l.936-4.254V44.943Zm-1.606-36.7h0l-2.255,3.07H13.941l-2.252-3.07ZM10.7,4.347h0l.414.563,1.763,2.6-4.39,4.151L5.34,9.448ZM5.064,30.61V10.6l3.143,2.369V49.059L5.065,51.424V30.61Zm5.721,26.958-.087.117-5.356-5.1,3.143-2.216,4.39,4.151v0L11.81,56.094l-.7,1.031Zm26.531.394H11.691l1.538-2.1.713-.973v0H35.064l2.253,3.072Zm6.347-5.38-5.352,5.1L36.135,54.52l0,0,4.388-4.15,3.145,2.212Zm.282-21.161V51.429h0L40.8,49.059V12.971L43.942,10.6l0,0Z"/>
  </g>
</svg>
